<?xml version="1.0" standalone="no"?>
<!DOCTYPE svg PUBLIC "-//W3C//DTD SVG 1.1//EN" "http://www.w3.org/Graphics/SVG/1.1/DTD/svg11.dtd">
<svg xmlns="http://www.w3.org/2000/svg">
<metadata>Generated by Fontastic.me</metadata>
<defs>
<font id="imonitor" horiz-adv-x="512">
<font-face font-family="imonitor" units-per-em="512" ascent="480" descent="-32"/>
<missing-glyph horiz-adv-x="512" />

<glyph glyph-name="arrow-bottom" unicode="&#97;" d="M256 8l208 208 0 115-165-165 0 338-83 0 0-338-168 165 0-115z"/>
<glyph glyph-name="arrow-top" unicode="&#98;" d="M256 504l-208-208 0-115 168 165 0-338 83 0 0 338 165-165 0 115z"/>
<glyph glyph-name="stairs" unicode="&#99;" d="M493 138l-375 0 0 32 71 0c0 0 3 0 3 0 10 0 16 6 16 16l0 51 67 0c0 0 3 0 3 0 10 0 16 6 16 16l0 54 71 0c9 0 19 10 19 19 0 0 0 4 0 4l0 44 61 0c9 0 19 10 19 20 0 9-16 16-26 16l-102 0c-6 0-16-10-16-20 0-9 10-19 19-19l3 0 0-32-83 0c-9 0-19-9-19-19 0-10 6-19 19-19l0-32-89 0c-10 6-16-3-16-13 0-10 9-19 19-19l3 0 0-32-90 0c-9 0-19-10-19-19 0-10 7-20 19-20l0-32-67 0c-9 4-19-6-19-16 0-9 10-19 19-19l477 0c10 0 19 10 19 19-3 10-13 20-22 20z"/>
<glyph glyph-name="circle" unicode="&#100;" d="M256 512c-141 0-256-115-256-256 0-141 115-256 256-256 141 0 256 115 256 256 0 141-115 256-256 256z m0-493c-131 0-237 106-237 237 0 131 106 237 237 237 131 0 237-106 237-237 0-131-106-237-237-237z"/>
<glyph glyph-name="circle-filled" unicode="&#101;" d="M256 512c-141 0-256-115-256-256 0-141 115-256 256-256 141 0 256 115 256 256 0 141-115 256-256 256z"/>
<glyph glyph-name="bed" unicode="&#102;" d="M74 365c3 0 3 0 6 3 3 3 3 3 3 6 0 4 0 4-3 7 0 0-3 0-6 0-4 0-4 0-7-3 0 0 0-4 0-7 0-3 0-3 3-6 0 0 4 0 4 0z m121 0c3 0 3 0 7 3 3 3 3 3 3 6 0 4 0 4-3 7 0 0-4 0-7 0-3 0-3 0-6-3 0 0-3-4-3-7 0-3 0-3 3-6 3 0 3 0 6 0z m243 0c4 0 4 0 7 3 3 3 3 3 3 6 0 4 0 4-3 7-3 3-3 3-7 3-3 0-3 0-6-3-3-3-3-3-3-7 0-3 0-3 3-6 0-3 3-3 6-3z m-121 0c3 0 3 0 6 3 3 3 3 3 3 6 0 4 0 4-3 7-3 0-3 0-6 0-3 0-3 0-7-3-3 0-3-4-3-7 0-3 0-3 3-6 0 0 4 0 7 0z m157 83l-436 0c-22 0-38-19-38-38l0-269c0-7 3-10 10-10l19 0 0-57c0-4 3-10 9-10l39 0c6 0 9 3 9 10l0 22 343 0 0-22c0-7 3-10 9-10l39 0c6 0 9 3 9 10l0 57 20 0c6 0 9 3 9 10l0 269c-3 19-19 38-41 38z m-458-38c0 9 10 19 19 19l439 0c9 0 19-10 19-19l0-170-13 0 0 10c0 9-10 19-19 19l-13 0c10 6 22 13 32 22 3 3 3 10 0 13-54 54-141 54-192 0-3 0-3-6 0-10 10-9 19-16 32-22l-125 0c10 6 23 13 32 22 3 4 3 10 0 13-29 26-64 39-99 39-35 0-70-13-96-39-3-3-3-9 0-13 10-9 19-16 32-22l-16 0c-10 0-19-10-19-19l0-10-13 0z m448-170l-416 0 0 10c0 0 0 3 3 3l413 0c0 0 3 0 3-3z m-157 61c45 38 109 38 154 0-45-39-109-39-154 0z m-179-29c-29 0-54 10-77 29 23 19 48 29 77 29 29 0 54-10 77-29-19-19-48-29-77-29z m-61-189l-22 0 0 48 22 0z m16 29l0 19 343 0 0-19z m384-29l-22 0 0 48 22 0z m29 67l-480 0 0 71 477 0 0-71z"/>
<glyph glyph-name="icons8-cooker-hood" unicode="&#103;" d="M182 512c-6 0-9-6-9-10l0-108-135-119-6 0c-16 0-32-13-32-32l0-70 512 0 0 73c0 16-13 32-32 32l-6 0-138 119 0 105c0 7-3 10-10 10-6 0-9-3-9-10l0-102-122 0 0 102c0 7-6 10-13 10 4 0 0 0 0 0z m7-134l134 0 119-103-375 0z m-157-122l6 0c4 0 4 0 7 0l425 0c4 0 4 0 7 0l3 0c6 0 10-3 10-10l0-51-471 0 0 51c0 7 7 10 13 10z m112-112c0 0-3 0 0 0-6 0-13-6-10-13 0 0 0-3 0-3 0 0 10-19 10-35 0-10-3-10-3-16 0-7-7-13-7-26 0-22 10-45 10-45 3-6 10-6 13-6 6 3 6 10 3 13 0 0-10 19-10 35 0 10 4 10 4 16 0 6 6 13 6 26 0 22-10 44-10 44 0 7-3 10-6 10z m70 0c-6 0-12-6-9-13 0 0 0-3 0-3 0 0 9-19 9-35 0-10 0-10-3-16-3-7-6-13-6-26 0-22 13-45 13-45 0-6 6-6 12-6 7 3 7 10 7 13 0 0-10 19-10 35 0 10 0 10 3 16 4 6 7 13 7 26 0 22-10 44-10 44-3 7-6 10-13 10z m74 0c-3 0-3 0 0 0-6 0-13-6-10-13 0 0 0-3 0-3 0 0 10-19 10-35 0-10-3-10-3-16 0-7-10-13-10-26 0-22 13-45 13-45 3-6 10-6 13-6 6 3 6 10 3 13 0 0-10 19-10 35 0 10 4 10 4 16 0 6 6 13 6 26 0 22-10 44-10 44 0 7-3 10-6 10z m70 0c-6 0-12-6-9-13 0 0 0-3 0-3 0 0 9-19 9-35 0-10-3-10-3-16 0-7-6-13-6-26 0-22 9-45 9-45 4-6 10-6 13-3 7 3 7 10 3 13 0 0-9 19-9 35 0 10 3 10 3 16 0 7 6 13 6 26 0 22-12 45-12 45 3 3 0 6-4 6z m-16 99l128 0 0-35-128 0z m-25-19c0-12-10-22-23-22-12 0-22 10-22 22 0 12 10 22 22 22 13 0 23-10 23-22z m-64 0c0-12-10-22-23-22-12 0-22 10-22 22 0 12 10 22 22 22 13 0 23-10 23-22z"/>
<glyph glyph-name="living-room-1" unicode="&#104;" d="M298 16l0 26c12 3 22 12 22 28 0 10-6 20-13 23 7 6 13 16 13 29 0 19-13 35-32 38l0 35c0 19-16 35-35 35l-186 0c-19 0-35-16-35-35l0-35c-19-3-32-19-32-38 0-13 3-23 13-29-7-7-13-16-13-26 0-13 10-25 22-29l0-25-22 0 0-13 512 0 0 16z m-20 128c13 0 26-10 26-26 0-12-10-25-26-25-16 0-22 13-22 29 0 16 10 22 22 22z m-230 51c0 10 10 19 19 19l183 0c9 0 19-9 19-19l0-35c-19-3-32-19-32-38 0-10 3-16 9-26l-176 0c7 6 10 16 10 26 0 19-13 35-32 38z m-10-51c13 0 26-10 26-26 0-12-10-22-26-22-16 0-25 10-25 26 0 16 13 22 25 22z m244-128l-244 0 0 26 240 0 0-26z m-253 42c-7 0-13 6-13 12 0 7 6 13 13 13l262 0c7 0 13-6 13-13 0-6-6-12-13-12z m57 118l16 0 0-16-16 0z m128 0l16 0 0-16-16 0z m-182-48l16 0 0-16-16 0z m240 0l16 0 0-16-16 0z m230 160l0 58-86 0 0-58-58 0 0 61-86 0 0-61-32 0 0-38 272 0 0 38z m-22 42l10 0 0-42-10 0z m-26 0l10 0 0-42-10 0z m-22 0l10 0 0-42-10 0z m-96 3l6 0 0-42-6 0z m-26 0l10 0 0-42-10 0z m-22 0l10 0 0-42-10 0z m208-67l-240 0 0 6 240 0z m-32-112l0 22-58 0 0 32-86 0 0-74 176 0 0-6-166 0 0-16 182 0 0 38z m-122 0l-6 0 0 38 6 0z m26 0l-10 0 0 38 10 0z m22 0l-6 0 0 38 6 0z m58 0l-42 0 0 6 42 0z m-90 300l16 0 0-16-16 0z m122-32l0 26-58 0 0 32-112 0 0-54-70 0 0-42 272 0 0 38z m-58 10l42 0 0-6-42 0z m-96 10l26 0 0 12-22 0 0 10 80 0 0-10-26 0 0-16 26 0 0-16-80 0 0 20z m170-42l-240 0 0 10 240 0z m-416-54l128 0 0-16-128 0z m54 166l16 0 0-32-16 0z m16-48l0 10-16 0 0-10c-25-6-48-29-48-58l0-54 16 0 0 6 16 0 0 16-16 0 0 32c0 23 20 42 42 42 22 0 42-19 42-42l0-32-20 0 0-16 16 0 0-6 16 0 0 54c4 29-19 55-48 58z m-22-90l32 0 0-16-32 0z m6-54l16 0 0-16-16 0z"/>
<glyph glyph-name="living-room" unicode="&#105;" d="M349 410l-23 0c-19 0-38-13-41-36l-13-51 176 0-13 51c-6 20-22 36-45 36l-22 0c-6 57-54 102-112 102l-61 0c-83 0-153-70-153-154l0-307-42 0 0-51 102 0 0 51-41 0 0 307c0 77 61 138 137 138l58 0c48 0 90-38 93-86z m67-39l6-29-131 0 7 29c6 13 16 23 32 23l60 0c13 0 23-10 26-23z m-330-336l0-16-70 0 0 16z m404 247l-26 0c-13 0-22-10-22-23l0-3c-29-3-52-26-52-54l0-23-99 0c-16 0-25-13-25-25l0-128 16 0 0-26 51 0 0 26 112 0 0-26 51 0 0 26 16 0 0 233c0 13-10 23-22 23z m-80-80c0 19 16 35 35 38l0-61-35 0z m-93-186l-19 0 0 10 16 0 0-10z m160 0l-16 0 0 10 16 0z m19 26l-214 0 0 108c0 7 3 10 9 10l205 0z m-35 137l0 80c0 3 3 3 3 3l26 0c3 0 3-3 3-3l0-80z"/>
<glyph glyph-name="bathtub" unicode="&#106;" d="M486 240l-9 0 0 179c0 42-35 77-77 77-38 0-64-29-67-70-19-4-35-20-35-42 0-6 3-10 9-10l67 0c7 0 10 4 10 10 0 22-13 38-35 42 3 25 19 51 51 51 32 0 61-26 61-61l0-179-256 0c-3 22-23 35-42 35-9 13-22 19-35 19-16 0-32-9-38-22-7 3-13 3-23 3-22 0-38-16-41-35-16 3-26-10-26-23 0-16 10-25 26-25l9 0 23-93c6-26 32-45 57-45l7 0-10-22c-3-3 0-10 3-10 0 0 3 0 3 0 4 0 7 3 7 3l16 29 237 0 16-29c3-3 3-6 6-6 3 0 3 0 3 3 3 3 7 7 3 10l-9 22c25 0 48 19 54 45l23 93 9 0c16 0 26 9 26 25 3 13-7 26-23 26z m-121 154l-48 0c3 9 13 16 25 16 13 0 20-7 23-16z m-298-138c7 0 16-3 19-10 4-3 7-3 10-3 3 0 6 3 6 7 4 12 13 22 26 22 10 0 19-3 22-13 4-3 7-3 10-3 0 0 3 0 3 0 10 0 19-6 23-16l-141 0c3 10 13 16 22 16z m371-157c-6-19-22-32-41-32l-279 0c-19 0-35 13-41 32l-23 90 404 0z m48 106l-460 0c-7 0-10 3-10 9 0 7 3 10 10 10l464 0c6 0 9-3 9-10 0-6-6-9-13-9z m-179 131c7 0 10 3 10 10l0 3c0 6-3 9-10 9-6 0-9-3-9-9l0-3c0-7 3-10 9-10z m0-38c7 0 10 3 10 9l0 10c0 6-3 9-10 9-6 0-9-6-9-9l0-10c0-6 3-9 9-9z m0-32c7 0 10 3 10 9l0 3c0 7-3 10-10 10-6 0-9-6-9-10l0-3c0-6 3-9 9-9z m35 70c7 0 10 3 10 10l0 3c0 6-3 9-10 9-6 0-9-3-9-9l0-3c0-7 3-10 9-10z m-9-29c0-6 3-9 9-9 7 0 10 3 10 9l0 10c0 6-3 9-10 9-6 0-9-6-9-9z m0-35c0-6 3-10 9-10 7 0 10 4 10 10l0 6c0 7-3 10-10 10-6 0-9-6-9-10z m41 64c7 0 10 3 10 10l0 3c0 6-3 9-10 9-6 0-9-3-9-9l0-3c3-7 6-10 9-10z m-6-29c0-6 3-9 10-9 6 0 6 3 6 9l0 10c0 6-3 9-10 9-6 0-6-6-6-9z m0-35c0-6 3-10 10-10 6 0 6 7 6 10l0 6c0 7-3 10-10 10-6 0-9-3-9-10l0-6z"/>
<glyph glyph-name="arrow-point-to-bottom" unicode="&#107;" d="M230 122l-220 217c-13 13-13 35 0 51 12 13 35 13 51 0l195-195 195 195c13 13 35 13 51 0 13-12 13-35 0-51l-220-221c-7-6-16-9-26-9-10 0-19 3-26 13z"/>
<glyph glyph-name="arrow-point-to-left" unicode="&#108;" d="M122 282l220 220c13 13 36 13 52 0 12-12 12-35 0-51l-199-195 195-195c13-13 13-35 0-51-12-13-35-13-51 0l-217 220c-10 7-13 16-13 26 0 10 3 19 13 26z"/>
<glyph glyph-name="arrow-point-to-right" unicode="&#109;" d="M390 230l-220-220c-13-13-36-13-52 0-12 12-12 35 0 51l199 195-195 195c-13 13-13 35 0 51 12 13 35 13 51 0l221-220c6-7 9-16 9-26 0-10-3-19-13-26z"/>
<glyph glyph-name="arrow-point-to-top" unicode="&#110;" d="M282 390l220-220c13-13 13-36 0-52-12-12-35-12-51 0l-195 199-195-195c-13-13-35-13-51 0-13 12-13 35 0 51l220 221c7 6 16 9 26 9 10 0 19-3 26-13z"/>
<glyph glyph-name="left-arrow-key" unicode="&#111;" d="M413 61l-195 195 195 195-58 61-256-256 256-256z"/>
<glyph glyph-name="list" unicode="&#112;" d="M54 371c32 0 55 26 55 55 0 28-23 54-55 54-32 0-54-22-54-54 0-32 26-55 54-55z m0 83c16 0 29-12 29-28 0-16-13-29-29-29-16 0-28 13-28 29 0 16 12 28 28 28z m0-252c32 0 55 25 55 54 0 29-23 54-55 54-32 0-54-22-54-54 0-32 26-54 54-54z m0 83c16 0 29-13 29-29 0-16-13-29-29-29-16 0-28 13-28 29 0 16 12 29 28 29z m0-253c32 0 55 26 55 54 0 32-26 55-55 55-28 0-54-26-54-55 0-32 26-54 54-54z m0 83c16 0 29-13 29-29 0-16-13-28-29-28-16 0-28 12-28 28 0 16 12 29 28 29z m128 298l317 0c7 0 13 6 13 13 0 6-6 12-13 12l-317 0c-6 0-12-6-12-12 0-7 6-13 12-13z m0-170l317 0c7 0 13 7 13 13 0 6-6 13-13 13l-317 0c-6 0-12-7-12-13 0-6 6-13 12-13z m0-169l317 0c7 0 13 6 13 12 0 7-6 13-13 13l-317 0c-6 0-12-6-12-13 0-6 6-12 12-12z"/>
<glyph glyph-name="view" unicode="&#113;" d="M509 266c-67 67-157 105-253 105-96 0-182-38-250-105l-3-4c-3-3-3-6 0-12 3-4 3-4 7-4 3 0 3 0 6 4l3 3c45 48 103 80 163 93-25-23-41-55-41-90 0-64 51-115 115-115 64 0 115 51 115 115 0 35-16 67-45 90 64-13 122-45 170-93 3-3 10-3 13 0 3 3 3 9 0 13z m-157-10c0-54-45-96-96-96-51 0-96 42-96 96 0 54 42 96 96 96 54 0 96-42 96-96z m-35 10c-3 0-7-4-7-10 0-29-22-54-54-54-32 0-51 25-51 54 0 29 22 54 51 54 6 0 10 4 10 10 0 6-4 6-10 6-38 0-70-32-70-70 0-38 32-70 70-70 38 0 70 32 70 70 0 6-3 10-9 10z"/>
<glyph glyph-name="plus" unicode="&#114;" d="M438 74c100 99 100 262 0 361-99 99-262 99-361 0-99-99-99-262 0-361 99-100 259-100 361 0z m-345 345c89 90 237 90 326 0 90-89 90-237 0-326-89-90-237-90-326 0-90 89-90 237 0 326z m163-259c3 0 6 0 10 3 3 3 3 7 3 10l0 70 70 0c3 0 7 0 10 3 3 4 3 7 3 10 0 6-6 13-13 13l-70 0 0 70c0 7-7 13-13 13-6 0-13-6-13-13l0-70-70 0c-7 0-13-7-13-13 0-6 6-13 13-13l70 0 0-70c0-7 7-13 13-13z"/>
<glyph glyph-name="minus-symbol" unicode="&#115;" d="M256 0c-141 0-256 115-256 256 0 141 115 256 256 256 141 0 256-115 256-256 0-141-115-256-256-256z m0 483c-125 0-227-102-227-227 0-125 102-227 227-227 125 0 227 102 227 227 0 125-102 227-227 227z m102-243l-204 0c-7 0-13 6-13 16 0 10 6 16 16 16l201 0c10 0 16-6 16-16-3-10-9-16-16-16z"/>
<glyph glyph-name="mode-circular-button" unicode="&#116;" d="M256 512c-141 0-256-115-256-256 0-141 115-256 256-256 141 0 256 115 256 256 0 141-115 256-256 256z m0-496c-131 0-240 106-240 240 0 131 106 240 240 240 131 0 240-106 240-240 0-131-109-240-240-240z m-74 240c0-11-8-19-19-19-10 0-19 8-19 19 0 11 9 19 19 19 11 0 19-8 19-19z m77 19c-9 0-19-9-19-19 0-10 10-19 19-19 10 0 19 9 19 19 0 10-6 19-19 19z m119-19c0-11-9-19-20-19-10 0-19 8-19 19 0 11 9 19 19 19 11 0 20-8 20-19z"/>
<glyph glyph-name="drop-down-arrow" unicode="&#117;" d="M0 384l256-256 256 256z"/>
<glyph glyph-name="home" unicode="&#118;" d="M507 304l-243 178c-5 3-11 3-16 0l-243-178c-5-4-7-13-2-19 4-6 12-7 18-3l235 172 235-172c2-1 5-2 8-2 4 0 8 2 10 5 5 6 3 15-2 19z m-65-25c-7 0-13-6-13-13l0-212-106 0 0 116c0 37-30 67-67 67-37 0-67-30-67-67l0-116-106 0 0 212c0 7-6 13-13 13-8 0-14-6-14-13l0-225c0-7 6-13 14-13l133 0c7 0 13 5 13 12 0 0 0 1 0 1l0 129c0 22 18 40 40 40 22 0 40-18 40-40l0-129c0 0 0-1 0-1 0-7 6-12 13-12l133 0c8 0 14 6 14 13l0 225c0 7-6 13-14 13z"/>
<glyph glyph-name="question" unicode="&#120;" d="M272 109c0-9-7-16-16-16-9 0-16 7-16 16 0 9 7 16 16 16 9 0 16-7 16-16z m-20 296c-50 0-81-31-81-81 0-5 4-8 8-8 4 0 8 3 8 8 0 41 24 65 65 65 63 0 73-45 73-72 0-27-22-57-51-70-32-15-26-68-26-71 0-4 4-7 8-7 0 0 0 0 1 0 4 1 7 5 7 9 0 1-5 44 17 54 35 17 60 52 60 85 0 55-33 88-89 88z m4 107c-141 0-256-115-256-256 0-141 115-256 256-256 141 0 256 115 256 256 0 141-115 256-256 256z m0-496c-132 0-240 108-240 240 0 132 108 240 240 240 132 0 240-108 240-240 0-132-108-240-240-240z"/>
<glyph glyph-name="add-user" unicode="&#121;" d="M502 112l-64 0 0 64c0 3-3 10-9 10-3 0-10-4-10-10l0-64-64 0c-3 0-9-3-9-10 0-3 3-9 9-9l64 0 0-64c0-3 3-10 10-10 3 0 9 3 9 10l0 64 64 0c4 0 10 3 10 9 0 7-3 10-10 10z m-147 131c13-3 26-9 35-19 4-3 10-3 13 0 3 3 3 10 0 13-13 9-25 16-41 22l-7 0c-9 3-16 0-22-6-19-19-42-23-67-23-26 0-48 4-68 23-6 6-12 9-22 6l-6 0c-36-9-64-35-74-70l-6-26-71 0c-3 0-3 0-3 0 0 0 0 3 0 3l16 52c13 38 38 51 83 64 0 0 0 0 3 0 4-4 7-4 10-7 0 0 3 0 3 0 3 0 7 3 7 3 3 4 0 10-4 13-28 13-44 48-44 87 0 35 28 60 60 60 10 0 20-3 29-6-6-13-6-26-6-38 0-74 45-135 96-135 51 0 96 61 96 135 0 54-42 96-96 96-32 0-61-16-80-42-13 6-26 6-39 6-44 0-80-35-80-80 0-32 10-60 29-83-38-6-70-22-83-70l-16-48c0-7 0-13 3-19 3-7 10-10 16-10l67 0-6-19c-3-7 0-16 3-19 7-7 13-10 19-10l180 0c3 0 9 3 9 10 0 3-3 9-9 9l-180 0c-3 0-3 0-6 3 0 0-3 4 0 7l19 61c10 28 32 51 61 60l6 0c4 0 4 0 4-3 22-25 51-29 80-29 28 0 57 4 80 29 0 0 3 3 3 0z m-89 227c35 0 64-22 73-54-16-3-32 3-38 16-3 3-7 6-10 3-3-3-3-3-3-6-13-26-51-35-96-26 3 39 35 67 74 67z m-45-86c35 0 61 10 77 32 9-10 22-13 38-13 3 0 6 0 10 0 0-3 0-3 0-6 0-61-39-119-80-119-39-3-74 48-77 109 9-3 22-3 32-3z"/>
<glyph glyph-name="file" unicode="&#122;" d="M310 323l-211 0c-6 0-9-3-9-6 0-3 3-10 9-10l215 0c3 0 9 3 9 10-3 3-6 6-13 6z m-211 51l87 0c3 0 6 7 6 10 0 3-3 10-10 10l-83 0c-6 0-9-7-9-10 0-3 3-10 9-10z m221-128c0 7-3 10-10 10l-211 0c-6 0-9-3-9-10 0-3 3-9 9-9l215 0c3 3 6 6 6 9z m-67-67c0 3-3 10-10 10l-144 0c-3 0-9-3-9-10 0-3 3-9 9-9l144 0c3 0 10 6 10 9z m-154-61c-3 0-9-3-9-9 0-3 3-10 9-10l119 0c3 0 9 3 9 10 0 3-3 9-9 9z m-77 378l247 0 0-118 118 0 0-122 16 0 0 131-121 125-279 0 0-512 298 0 0 16-279 0z m263-13l89-89-89 0z m208-381c-3 0-10-3-10-6-9-48-48-80-93-80-41 0-80 29-92 67l41 0 0 16-70 0 0-67 16 0 0 32c19-38 57-67 105-67 55 0 96 38 109 93 0 6-3 12-6 12z m-3 103l0-35c-20 38-58 60-100 60-51 0-99-35-112-83 0-3 0-9 7-9 3 0 9 0 9 6 13 42 52 70 96 70 39 0 74-22 90-60l-38 0 0-16 67 0 0 67z"/>
<glyph glyph-name="refresh" unicode="&#65;" d="M256 102c19 0 42 4 58 13 38 13 70 45 86 80 16 39 16 80 0 119-26 57-80 96-144 96-19 0-42-4-58-13-80-32-115-125-83-202 23-57 77-93 141-93z m-51 279c16 6 32 9 51 9 54 0 102-32 125-83 13-32 13-70 0-102-13-32-39-58-74-74-16-6-35-9-51-9-54 0-102 32-125 83-29 67 7 147 74 176z m-189-211c0-4 6-7 10-7 0 0 3 0 3 0 6 3 9 7 6 13-32 86-9 179 55 243 41 45 102 71 163 71 64 0 121-23 166-68l-25 0c-7 0-10-3-10-9 0-7 3-10 10-10l51 0c3 0 6 0 6 3 3 4 3 4 3 7l0 51c0 6-3 10-9 10-7 0-10-4-10-10l0-26c-48 48-115 74-182 74-67 0-131-29-179-77-36-35-58-80-68-128-9-45-6-93 10-137z m410-77c-90-93-240-96-333-3l25 0c7 0 10 3 10 9 0 7-3 10-10 10l-51 0c-6 0-9-3-9-10l0-51c0-6 3-10 9-10 7 0 10 4 10 10l0 26c51-48 115-74 179-74 67 0 134 26 182 77 36 35 58 80 68 128 9 45 6 96-10 137-3 7-6 10-13 7-6-3-9-7-6-13 32-86 9-179-51-243z"/>
<glyph glyph-name="customer-service" unicode="&#66;" d="M358 16c-19 0-38 3-60 13-52 19-106 57-157 109-51 51-90 105-109 156-16 48-16 87 0 103 0 3 3 6 6 9 16 16 36 36 58 32 16 0 32-9 48-32 48-60 26-80 0-105l-3-3c-3-4-13-23 61-96 22-23 44-42 60-52 10-6 29-16 36-9l3 3c25 26 45 48 105 0 20-16 32-32 32-48 0-22-19-42-35-58-3-3-6-6-6-6-10-10-23-16-39-16z m-265 410c-16 0-32-16-45-32-3 0-6-4-6-7-16-13-13-48 3-86 19-48 54-103 105-151 48-48 103-86 151-105 41-16 73-16 86-3 3 3 7 6 10 6 16 13 32 29 32 48 0 13-10 26-26 38-51 42-64 26-86 4l-3-4c-10-9-29-9-55 7-22 9-41 25-67 51-61 61-80 96-61 115l3 3c26 26 39 39 0 90-12 16-25 26-41 26 3 0 3 0 0 0z m310-295c-3 0-3 0-6 3-3 4-3 7 0 10 16 10 29 22 38 38 26 32 39 74 39 116 0 102-84 188-189 188-32 0-64-6-90-22 0-3-3-3-6 0 0 3 0 10 3 10 29 16 64 25 96 25 112 0 202-89 202-201 0-45-13-87-42-122-13-16-26-29-42-42 0-3 0-3-3-3z m-153 243c9 4 16 4 25 4 23 0 35-13 35-32 0-10-6-20-19-26l-22-16c-10-6-13-16-13-22l51 0c0 0 3 0 3-4l0-12c0 0 0-4-3-4l-67 0c0 0-3 0-3 4l0 9c0 19 6 32 19 42l26 16c6 3 9 9 9 13 0 9-6 16-19 16-6 0-13 0-19-4l-7-3c0 0-3 0-3 0l-3 13c0 0 0 3 0 3z m160-80l-13-3 0-25c0 0 0-4-3-4l-10 0c0 0-3 0-3 4l0 28-55 0c0 0-3 0-3 4l0 9c0 0 0 0 0 3 3 4 7 10 13 13l29 39c3 3 6 6 9 12 0 0 0 0 4 0l19 0c0 0 3 0 3-3l0-64 10 0c0 0 3 0 3-3l0-10z m-29 42c0 6 0 10 0 16 0 3 0 3-3 0l-26-32c-3-3-6-6-6-10 0 0 0-3 0-3l35 0z"/>
<glyph glyph-name="sort" unicode="&#67;" d="M256 512c-141 0-256-115-256-256 0-141 115-256 256-256 141 0 256 115 256 256 0 141-115 256-256 256z m-13-362c0-6-3-12-13-12l-115 0c-6 0-13 3-13 12l0 23c0 6 4 13 13 13l115 0c7 0 13-4 13-13z m0 93c0-6-3-13-13-13l-115 0c-6 0-13 4-13 13l0 26c0 6 4 13 13 13l115 0c7 0 13-4 13-13z m0 93c0-6-3-13-13-13l-115 0c-6 0-13 3-13 13l0 26c0 6 4 12 13 12l115 0c7 0 13-3 13-12z m160-54l-16-16c-3-4-6-4-9-4-4 0-7 0-10 4l-22 22c-4 3-10 0-10-3l0-157c0-6-3-13-13-13l-19 0c-6 0-13 7-13 13l0 256c0 3 0 6 3 10 4 3 4 3 10 3 3 0 6 0 10-3l92-93c4-3 4-3 4-10-4-3-4-6-7-9z"/>
<glyph glyph-name="tick" unicode="&#68;" d="M150 156l-97 97-53-54 128-127 0 0 23-24 361 361-54 55z"/>
<glyph glyph-name="mobiloitte-font-icons" unicode="&#70;" d="M256 512c-141 0-256-115-256-256 0-141 115-256 256-256 141 0 256 115 256 256 0 141-115 256-256 256z m0-493c-131 0-237 106-237 237 0 131 106 237 237 237 131 0 237-106 237-237 0-131-106-237-237-237z m96 333c-3 3-10 3-13 0l-83-83-83 83c-3 3-10 3-13 0-3-3-3-10 0-13l83-83-83-83c-3-3-3-10 0-13 3-3 3-3 6-3 4 0 7 0 7 3l83 83 83-83c3-3 3-3 7-3 3 0 6 0 6 3 3 3 3 10 0 13l-83 83 83 83c3 3 3 10 0 13z"/>
<glyph glyph-name="mobiloitte-font-icons-1" unicode="&#71;" d="M358 266l-140 96c-4 3-16 3-16-10l0-192c0-13 12-13 16-10l140 96c4 4 10 13 0 20z m-102 246c-141 0-256-115-256-256 0-141 115-256 256-256 141 0 256 115 256 256 0 141-115 256-256 256z m0-490c-128 0-234 106-234 234 0 128 106 234 234 234 128 0 234-106 234-234 0-128-106-234-234-234z"/>
<glyph glyph-name="mobiloitte-font-icons-2" unicode="&#72;" d="M256 512c-141 0-256-115-256-256 0-141 115-256 256-256 141 0 256 115 256 256 0 141-115 256-256 256z m0-480c-122 0-224 99-224 224 0 122 99 224 224 224 122 0 224-99 224-224 0-125-102-224-224-224z m48 333c-10 0-16-7-16-16l0-183c0-9 6-16 16-16 10 0 16 7 16 16l0 183c0 6-6 16-16 16z m-96 0c-10 0-16-7-16-16l0-183c0-9 6-16 16-16 10 0 16 7 16 16l0 183c0 6-6 16-16 16z"/>
<glyph glyph-name="mobiloitte-font-icons-3" unicode="&#73;" d="M512 506l-144-61 0-304c-16 9-35 19-58 19-48 0-89-35-89-77 0-41 38-77 89-77 52 0 90 36 90 77l0 266 112 45m-512 38l310 0 0-22-310 0z m0-102l310 0 0-23-310 0z m0-100l310 0 0-22-310 0z m0-102l170 0 0-22-170 0z m0-99l170 0 0-23-170 0z"/>
<glyph glyph-name="mobiloitte-font-icons-4" unicode="&#74;" d="M230 448c-3 0-9 0-12-3l-116-99-89 0c-3 0-10-4-10-10l0-163c0-3 0-3 3-7 4 0 4-3 7-3l89 0 116-105c3-4 9-4 12-4 16 0 26 13 26 26l0 339c0 19-13 29-26 29z m215-192c0 70-45 134-112 157-3 0-10 0-10-7 0-3 0-9 7-9 60-19 102-77 102-141 0-64-42-122-102-141-4 0-7-6-7-9 0-4 3-7 10-7 0 0 3 0 3 0 64 23 109 87 109 157z m-64 202c-3 3-10 0-10-4-3-3 0-9 3-9 74-32 122-106 122-186 0-83-51-157-128-185-3-4-6-7-6-10 0-3 3-6 6-6 0 0 3 0 3 0 83 32 138 112 138 201 3 87-48 163-128 199z m-13-202c0 51-35 96-83 112-3 0-10 0-10-6 0-4 0-10 7-10 41-13 70-51 70-93 0-45-29-83-70-93-4 0-7-6-7-9 0-3 3-7 10-7 0 0 0 0 3 0 45 10 80 55 80 106z"/>
<glyph glyph-name="mobiloitte-font-icons-5" unicode="&#75;" d="M288 368l-208 0c-3 0-6-3-6-6l0-356c0-3 3-6 6-6l208 0c3 0 6 3 6 6l0 356c0 3-3 6-6 6z m-6-355l-196 0 0 342 196 0z m-100 269c7 0 10 3 10 9 0 7-3 10-10 10-6 0-9-3-9-10 0-6 3-9 9-9z m0-39c26 0 48 19 48 48 0 26-19 48-48 48-28 0-48-19-48-48 4-25 23-48 48-48z m0 77c16 0 29-13 29-29 0-16-13-29-29-29-16 0-28 13-28 29 0 16 12 29 28 29z m0-179c7 0 10 3 10 9 0 7-3 10-10 10-6 0-9-3-9-10 0-6 6-9 9-9z m0-71c45 0 77 36 77 77 0 42-35 77-77 77-41 0-76-35-76-77 0-41 35-77 76-77z m0 141c36 0 61-25 61-61 0-35-25-60-61-60-35 0-60 25-60 60 0 36 28 61 60 61z m0-105c26 0 45 19 45 44 0 26-19 45-45 45-25 0-44-19-44-45 0-25 22-44 44-44z m0 70c16 0 26-13 26-26 0-16-13-25-26-25-12 0-25 13-25 25 0 13 13 26 25 26z m7-150c9 0 16 6 16 16 0 9-7 16-16 16-10 0-16-7-16-16 0-10 6-16 16-16z m246 371l-13 0c-3 32-19 61-44 80-26 19-58 29-90 25l-3 13c35 3 70-6 99-29 29-22 48-54 51-89z m-35-7l-13-3c-3 23-13 42-32 55-16 12-38 19-61 16l-3 12c26 4 51-3 71-19 22-13 35-35 38-61z m-38-3l-13 0c0 13-7 23-16 29-10 6-19 10-32 10l-3 12c16 4 28-3 41-12 13-10 19-23 23-39z"/>
<glyph glyph-name="mobiloitte-font-icons-6" unicode="&#76;" d="M256 512c-141 0-256-115-256-256 0-141 115-256 256-256 141 0 256 115 256 256 0 141-115 256-256 256z m0-490c-128 0-234 106-234 234 0 128 106 234 234 234 128 0 234-106 234-234 0-128-106-234-234-234z m48 240l-134 68c-4 3-10 0-10-4 0 0 0-3 0-3l0-134c0-3 3-7 6-7 0 0 4 0 4 0l134 68c3 3 6 6 3 9 0 3-3 3-3 3z m22 68l26 0 0-148-26 0z"/>
<glyph glyph-name="mobiloitte-font-icons-7" unicode="&#77;" d="M256 0c141 0 256 115 256 256 0 141-115 256-256 256-141 0-256-115-256-256 0-141 115-256 256-256z m0 490c128 0 234-106 234-234 0-128-106-234-234-234-128 0-234 106-234 234 0 128 106 234 234 234z m-48-240l134-68c4-3 10 0 10 4 0 0 0 3 0 3l0 134c0 3-3 7-6 7 0 0-4 0-4 0l-134-68c-3-3-6-6-3-9 0-3 3-3 3-3z m-48 80l26 0 0-148-26 0z"/>
<glyph glyph-name="mobiloitte-font-icons-8" unicode="&#78;" d="M442 410c0 0 3 0 3-7 0-6 0-48 0-54 0-7-7-7-7-7l-307 0c-38 0-67-28-67-67 0 0 0-3 0-3 0-38 29-67 67-67l247 0c9 0 12 0 12 0 0 0 0 22 0 32 0 9 10 0 10 0l106-61c0 0 6-3 0-10-7-6-109-64-109-64 0 0-10-9-10 4 0 12 0 28 0 28 0 0-6 0-13 0l-246 0c-74 0-134 61-134 135 0 0 0 0 0 3 0 0 0 3 0 3 0 74 60 135 134 135 6 0 314 0 314 0z"/>
<glyph glyph-name="mobiloitte-font-icons-9" unicode="&#79;" d="M470 336l-182-80c-3 0-6 0-6 3l6 61c0 3 0 3-3 3-119 23-269-96-208-179 3-6 3-10-7-6-208 70 74 265 224 284 4 0 4 4 4 4l6 64c0 3 3 3 6 3l157-151c7-3 7-6 3-6z m-412-237c246-41 432 39 364 157 0 3 4 3 4 3 259-147-144-278-368-230"/>
<glyph glyph-name="mobiloitte-font-icons-10" unicode="&#80;" d="M259 122c-70 0-125 57-125 131l0 51 32 0 0-48c0-54 42-99 93-99 51-3 93 41 93 99l0 48 32 0 0-48c0-74-54-134-125-134z m0 64c39 0 67 35 67 76l0 173c0 42-32 77-67 77-35 0-67-35-67-77l0-169c0-45 29-80 67-80z m67 230l-134 0 0 26 134 0z m-134-22l134 0 0-26-134 0z m51-266l35 0 0-96-35 0z m-80-93l195 0 0-35-195 0z"/>
<glyph glyph-name="mobiloitte-font-icons-11" unicode="&#81;" d="M141 467c-16 16-35 26-58 26-22 0-45-10-57-26-16-13-26-35-26-57 0-23 10-42 26-58l6-6 118 118z m-112-102c-10 13-16 29-16 45 0 19 6 35 19 48 16 16 32 22 51 22 16 0 32-6 45-16z m457 102c-16 16-35 26-57 26-23 0-42-10-58-26l-6-6 118-119 3 10c16 16 26 35 26 58 0 22-10 44-26 57z m-3-102l-96 96c10 13 26 19 42 19 19 0 35-6 48-19 13-13 19-32 19-48 3-19-3-35-13-48z m-217-355c-122 0-218 99-218 220 0 122 99 221 218 221 118 0 217-99 217-221 0-118-99-220-217-220z m0 428c-112 0-202-92-202-204 0-112 90-205 202-205 112 0 201 93 201 205 0 112-89 204-201 204z m-16-217c-4 3-7 3-7 6-19 19-38 39-54 55-7 6-13 9-7 16 7 6 10 0 16-4 16-16 29-28 45-44 7-7 10-7 16 0 23 22 48 44 71 70 3 3 9 13 16 3 6-6 0-9-4-16-28-25-54-51-80-77-3-3-6-9-12-9z"/>
<glyph glyph-name="mobiloitte-font-icons-12" unicode="&#82;" d="M74 480c0 3 3 3 3 6 3 13 16 20 25 26 74 0 148 0 218 0 38-42 74-83 112-128 3-3 6-10 6-16 0-112 0-221 0-333 0-22-16-38-38-38-96 0-189 0-285 0-16 0-29 6-35 25m13 234c0-70 0-141 0-211 0-23 6-29 25-29 90 0 183 0 272 0 20 0 26 6 26 26 0 102 0 201 0 304 0 9-3 12-13 12-19 0-35 0-54 0-32 0-48 13-48 45 0 23 0 48 0 71 0 12-3 16-16 16-55 0-109 0-163 0-26 0-32-7-32-32 3-64 3-132 3-202z m233 224c0 0-3 0-3-3 0-26 0-51 0-77 0-10 7-19 16-19 23 0 45 0 74 0-32 35-58 67-87 99z m36-317c0 35 0 71 0 106 0 9-4 9-13 9-35-9-74-19-109-25-13-3-13-10-13-19 0-42 0-87 0-128 0-29-19-48-45-48-19 0-35 6-44 25-10 19-7 35 6 51 13 16 29 20 48 16 3 0 10-3 16-6 0 29 0 58 0 83 0 39 0 39 35 45 39 10 77 16 119 26 16 3 19 0 19-16 0-52 0-106 0-157 0-26-13-45-32-51-19-7-42 0-55 19-12 16-12 38 0 57 13 20 36 23 58 16 3 0 3 0 10-3z m-154-61c0 13-13 29-26 29-16 0-28-13-28-29 0-16 12-28 25-28 13 0 29 16 29 28z m96 23c0-13 13-29 26-29 16 0 28 13 32 26 0 12-13 28-26 28-16 4-32-9-32-25z"/>
<glyph glyph-name="mobiloitte-font-icons-13" unicode="&#83;" d="M269 0c-23 13-35 35-51 54-7 10-13 26-26 36-10 9-16 19-22 28-4-3-10-6-13-12-19-16-42-20-61 0-13 9-26 22-35 35-19 19-16 45 3 64 19 19 38 41 61 61 61 54 89 128 99 208 0 16 3 28 16 38 10 0 16 0 26 0 22-16 41-38 64-58 6-6 9-6 19-3 19 13 38 10 51-6 13-13 16-32 3-51-6-10-3-13 3-20 16-12 29-28 45-44 10-10 16-23 13-36-3-16-10-25-26-25-64-7-124-23-179-64-13-7-13-13-3-26 26-32 51-64 77-96 13-16 13-25-3-38-16-16-29-32-48-42-4-3-7-3-13-3z m-141 112c10 0 16 3 22 10 16 16 32 32 48 48 23 22 42 44 71 64 48 32 102 44 160 54 6 0 16 0 19 10 3 9 0 16-6 25-58 51-116 109-170 163-6 7-16 10-26 7-6-3-6-10-6-19-10-84-38-160-106-221-19-16-38-39-57-58-16-16-16-32 0-45 9-9 19-19 29-28 6-7 12-10 22-10z m198-48c-3 3-6 10-9 13-16 22-35 45-51 64-10 13-20 35-32 35-13 0-23-22-36-32-12-10-12-22-3-32 10-10 19-22 26-32 13-16 25-32 35-48 10-16 22-16 35-6 10 9 19 19 29 28 3 0 6 4 6 10z m71 352c-3 13-10 22-23 26-9 3-16 0-19-7-3-6 3-9 7-13 3-6 9-9 12-12 4-4 7-10 13-7 7 0 7 7 10 13z"/>
<glyph glyph-name="logout" unicode="&#84;" d="M112 291c-6 0-10-3-10-9l0-52c0-3 4-9 10-9 6 0 10 3 10 9l0 52c-4 6-7 9-10 9z m0 218l-80-32c-22-7-32-19-32-42l0-358c0-23 10-35 32-42l80-32c3-3 10-3 13-3 16 0 29 13 29 35l0 442c0 25-20 41-42 32z m26-474c0-9-7-16-13-16-3 0-3 0-7 0l-80 32c-16 7-19 10-19 26l0 358c0 16 3 19 19 26l80 32c4 0 4 0 7 0 6 0 13-7 13-16z m41 426l122 0c13 0 25-13 25-26l0-128c0-3 4-9 10-9 3 0 10 3 10 9l0 128c0 23-20 42-42 42l-125 0c-3 0-9-3-9-10 0-6 3-6 9-6z m154-247c-3 0-10-3-10-9l0-128c0-13-13-26-25-26l-119 0c-3 0-9-3-9-9 0-7 3-10 9-10l119 0c22 0 41 19 41 42l0 128c3 9-3 12-6 12z m179 45c0 0-3 3 0 0l-86 90c-4 3-10 3-13 0-3-3-3-10 0-13l70-70-288 0c-3 0-6-4-6-10 0-3 3-10 9-10l288 0-70-70c-3-3-3-10 0-13 3-3 3-3 6-3 4 0 4 0 7 3l86 87c0 0 0 3 3 3-6 3-6 3-6 6z"/>
<glyph glyph-name="logo-svg-part1" unicode="&#85;" d="M256 475c-141 0-256-115-256-256 0-70 29-137 77-182-35 41-58 93-58 153 0 132 106 237 237 237 131 0 237-105 237-237 0-57-23-112-58-153 48 45 77 112 77 182 0 141-115 256-256 256z m0-77c-96 0-170-86-170-192 0-54 20-102 52-137-23 32-39 70-39 115 0 96 71 176 157 176 86 0 157-77 157-173 0-45-13-83-39-115 32 35 52 83 52 138 0 105-74 188-170 188z m0-70c-54 0-102-51-102-112 0-32 12-61 28-80-12 19-22 42-22 67 0 58 42 103 93 103 51 0 93-48 93-103 0-25-10-48-23-67 19 19 29 48 29 80 6 61-38 112-96 112z"/>
<glyph glyph-name="logo-svg-part2" unicode="&#86;" d="M426 499c0 0-151-35-202-144-42 103-138 157-138 157 167-195 52-496 52-496 48 58 73 112 89 160 23-51 61-109 122-176 3 0-211 371 77 499z m-157-29c0-23-19-41-42-41-23 0-41 18-41 41 0 23 18 42 41 42 23 0 42-19 42-42z"/>
<glyph glyph-name="cloud-temprature" unicode="&#87;" d="M445 275c3 10 3 19 3 29 0 67-54 122-122 122-25 0-51-10-70-26-22-16-35-35-45-61 0 0 0-3-3-3 0 0-3 0-3 0-39 0-74-26-90-64 0 0 0-3-3 0-6 0-13 3-19 3-51 0-93-41-93-96 0-51 42-93 93-93l326 0c51 0 93 42 93 93 0 42-26 77-64 90 0 0-3 0-3 6z m-26-169l-326 0c-42 0-77 35-77 76 0 42 35 74 77 74 6 0 9 0 16 0 3 0 3 0 6 0 7 0 13 3 16 10 10 32 39 54 71 54 0 0 3 0 3 0 0 0 3 0 3 0 10 0 16 3 19 13 13 45 55 73 99 73 58 0 103-48 103-102 0-10 0-19-3-29 0-3 0-9 0-13 6-6 12-6 12-9 32-10 55-39 55-74 3-41-32-73-74-73z"/>
<glyph glyph-name="temperature" unicode="&#88;" d="M512 435l0-19-80 0 0 19z m-32-45l-45 0 0-19 45 0z m-48-64l80 0 0 20-80 0z m48-25l-45 0 0-19 45 0z m-48-64l80 0 0 19-80 0z m13-115c0-58-45-103-103-103-57 0-102 45-102 103 0 28 13 57 35 76l-22 39-71-122 23-77c0-6-3-9-7-12 0 0-3 0-3 0-3 0-9 3-9 6l-16 58-29-48c-3-4-7-7-10-7-3 0-3 0-6 0-7 3-7 10-3 13l25 48-57-16c0 0-4 0-4 0-3 0-9 3-9 6 0 7 3 10 6 13l77 19 70 122-137 0-58-58c-3-3-3-3-6-3-3 0-7 0-7 3-3 4-3 10 0 16l42 48-54 0c-7 0-10 4-10 10 0 6 3 10 10 10l54 0-42 41c-3 3-3 10 0 16 4 3 10 3 16 0l55-54 141 0-71 118-77 23c-6 0-9 6-6 9 0 7 6 10 13 7l57-16-28 51c-4 6 0 9 3 13 6 3 9 0 13-4l25-48 19 58c0 6 7 10 13 6 7 0 10-6 7-12l-20-74 71-122 38 68 0 96c0 28 23 51 51 51 29 0 52-23 52-51l0-234c32-16 51-51 51-86z m-176 144l22 0 0 35z m22-55l0 35-22 0z m135-89c0 32-16 60-45 73l-7 3 0 244c0 16-12 32-32 32-16 0-32-13-32-32l0-247-6 0c-29-13-45-41-45-73 0-45 39-84 83-84 45 0 84 36 84 84z m-16 0c0-36-29-68-68-68-35 0-67 29-67 68 0 28 19 54 48 64l3 0 0 57 26 0 0-61 3 0c32-6 55-32 55-60z m-64 41c0 7-10 13-16 10-26-3-42-26-42-51 0-7 6-13 13-13 6 0 13 6 13 13 0 12 9 25 22 28 6 0 10 7 10 13z"/>
<glyph glyph-name="user" unicode="&#119;" d="M437 437c-100 100-262 100-362 0-35-35-59-79-69-127-10-47-7-96 9-141 2-5 8-8 14-6 5 2 8 8 6 13-15 42-18 86-9 129 10 45 32 85 64 117 91 92 241 92 332 0 44-43 68-101 69-163 1-62-22-120-65-165 0 0-1-1-1-2-1 0-2-1-3-2-91-92-241-92-332 0-1 0-1 1-2 1 0 1 0 2 0 3 0 2 0 4 0 6 0 1 0 2 0 2 1 2 1 3 1 5 0 0 0 1 0 2 0 1 0 2 0 4 0 1 0 1 1 2 0 1 0 3 0 4 0 1 0 2 0 2 1 2 1 3 1 4 0 1 0 2 1 3 0 1 0 2 0 3 0 1 1 2 1 3 0 1 0 2 1 3 0 1 0 2 0 2 1 2 1 3 1 4 1 1 1 1 1 2 1 1 1 2 1 3 1 1 1 2 1 3 1 1 1 2 1 3 1 1 1 2 1 3 1 1 1 2 2 3 0 1 0 1 1 2 0 1 1 2 1 3 0 1 1 2 1 3 1 1 1 2 2 3 0 0 0 1 1 2 0 1 1 2 1 3 1 1 1 1 2 2 0 1 1 2 1 3 1 1 1 2 2 2 1 1 1 2 2 3 0 1 1 2 1 2 1 1 1 2 2 3 1 1 1 2 2 2 0 1 1 2 2 3 0 1 1 1 1 2 1 1 2 2 2 3 1 0 2 1 2 2 1 1 2 1 2 2 1 1 1 2 2 2 1 1 2 2 2 3 1 0 2 1 2 2 1 0 2 1 3 2 0 1 1 1 2 2 0 1 1 1 2 2 1 1 1 1 2 2 1 1 2 1 3 2 0 1 1 1 2 2 1 1 1 1 2 2 1 1 2 1 2 2 1 0 2 1 3 2 1 0 2 1 2 1 1 1 3 2 4 2 0 1 1 1 1 2 2 1 3 2 5 2 0 1 0 1 1 1 1 1 3 2 5 3 1 0 1 1 2 1 1 1 2 1 3 2 1 0 2 1 3 1 1 0 2 1 3 1 19-18 44-28 70-28 26 0 51 10 70 28 37-17 67-47 84-85 2-5 8-7 13-5 6 2 8 9 6 14-18 41-49 73-89 93 12 17 18 36 18 57 0 56-46 102-102 102-6 0-10-5-10-11 0-5 4-10 10-10 45 0 81-36 81-81 0-20-7-39-21-54 0 0 0 0 0 0-15-17-37-27-60-27-23 0-45 10-60 27 0 0 0 0 0 0-14 15-21 34-21 54 0 22 9 42 24 57 4 5 4 11 0 15-4 4-10 4-15 0-19-19-30-45-30-72 0-21 6-40 18-57 0 0 0 0 0 0-1-1-2-1-3-2-1 0-2-1-4-2 0 0-1 0-2-1-1-1-2-1-4-2 0 0-1-1-2-1-1-1-2-2-3-2-1-1-2-2-3-2-1-1-2-2-3-2-1-1-2-1-3-2 0-1-1-2-2-2-1-1-2-2-3-2-1-1-2-2-3-2-1-1-1-2-2-2-1-1-2-2-3-3-1 0-2-1-2-2-1-1-2-1-3-2-1-1-1-2-2-2-1-1-2-2-3-3 0-1-1-1-2-2-1-1-2-2-2-3-1 0-2-1-2-2-1-1-2-2-3-3-1-1-1-1-2-2-1-1-1-2-2-3-1-1-1-1-2-2-1-1-2-2-3-3 0-1-1-2-1-3-1-1-2-2-3-4 0 0-1-1-1-1-1-2-2-4-3-6-1 0-1-1-2-2 0-1-1-2-2-3 0-1-1-2-1-3-1-1-1-2-2-3 0-1-1-2-1-3-1-1-1-2-2-3 0-1-1-2-1-3-1-1-1-2-2-3 0-1-1-2-1-3 0-1-1-2-1-3-1-1-1-2-1-3-1-1-1-2-2-4 0-1 0-2-1-3 0-1 0-2-1-3 0-1 0-2-1-3 0-1 0-2-1-3 0-1 0-2-1-3 0-2 0-3 0-4-1-1-1-2-1-3 0-1-1-2-1-4 0-1 0-2-1-3 0-1 0-2 0-3 0-1 0-2-1-3 0-2 0-3 0-4 0-1 0-2 0-3-1-2-1-3-1-4 0-1 0-2 0-3 0-2 0-3 0-5 0 0 0-1 0-2-1-2-1-5-1-7 0-2 0-5 1-8 0 0 0-1 0-1 0 0 0 0 0 0 0-1 0-2 0-2 0 0 0 0 0 0 1-1 1-1 1-2 0 0 0 0 0 0 1 0 1-1 1-1 0 0 0 0 0 0l2-2c1-1 2-2 3-3 50-50 115-75 181-75 66 0 131 25 181 75 1 1 2 2 3 3l2 2c46 48 71 112 70 179-1 67-27 130-75 178z"/>
<glyph glyph-name="triangle-left" unicode="&#69;" d="M160 256l192-192 0 384z"/>
<glyph glyph-name="triangle-left-without-space" unicode="&#89;" d="M416 0l0 512-320-256z"/>
<glyph glyph-name="cloud" unicode="&#90;" d="M512 184c0-56-45-102-100-102l-311 0c-56 0-101 46-101 102 0 50 37 92 85 100-1 3-1 7-1 11 0 35 28 64 63 64 16 0 31-6 42-15 19 45 45 85 116 85 86 0 127-67 127-137 0-3 0-6 0-9 46-9 80-50 80-99z"/>
<glyph glyph-name="temperature-1" unicode="&#48;" d="M512 438l0-22-80 0 0 22z m-35-48l-48 0 0-19 48 0z m-45-64l80 0 0 20-80 0z m45-25l-48 0 0-19 48 0z m-45-64l80 0 0 19-80 0z m13-119c0-57-48-105-106-105-25 0-48 9-64 22-6-13-19-32-22-29-7 0-29 36-29 45 0 13 10 23 22 23-3 9-6 16-9 25-80 7-144 74-144 157 0 86 70 157 157 157 12 0 25-3 35-3l0 35c0 29 22 54 54 54 29 0 55-22 55-54l0-237c32-19 51-51 51-90z m-160 90l0 179c-10 3-23 7-35 7-74 0-138-61-138-138 0-70 54-128 122-138 3 39 22 71 51 90z m137-90c0 32-19 61-44 74l-7 3 0 250c0 19-16 32-32 32-19 0-32-16-32-32l0-250-6-3c-29-13-45-42-45-74 0-44 38-83 83-83 45 0 83 35 83 83z m-16 0c0-38-28-67-67-67-38 0-67 29-67 67 0 29 19 58 51 64l3 0 0 231 26 0 0-231 3 0c32-6 51-35 51-64z m-64 45c0 7-9 13-16 10-25-7-41-29-41-55 0-6 6-12 13-12 6 0 12 6 12 12 0 13 10 26 23 29 6 0 13 10 9 16z m-121 298c0-13 13-23 29-23 16 0 28 10 28 23 0 9-22 45-28 45-7 0-29-36-29-45z m-176-176c-10 0-45-23-45-29 0-6 35-29 45-29 13 0 22 13 22 29 0 16-9 29-22 29z m38 96c10-10 26-7 39 3 12 13 12 29 3 38-7 7-45 16-51 10-7-3 3-45 9-51z m39-253c-13 13-29 13-39 3-6-6-16-48-9-51 6-6 44 3 51 10 9 9 9 25-3 38z"/>
<glyph glyph-name="air-conditioner" unicode="&#49;" d="M507 355c-32 33-70 58-113 76-43 19-90 28-138 28-48 0-95-9-138-28-43-18-81-43-113-76-5-5-6-13-3-19l121-204c3-5 8-8 14-8l15 0c2-7 4-14 7-21 2-6 5-12 6-18 2-6 3-11 3-16 0-9 7-16 15-16 9 0 16 7 16 16 0 7-1 15-3 24-2 7-5 14-8 21-1 4-2 7-3 10l48 0c2-7 4-14 7-21 2-6 5-12 6-18 2-6 3-11 3-17 0-8 7-15 15-15 9 0 16 7 16 15 0 8-1 16-3 25-2 7-5 14-8 21-1 4-2 7-3 10l48 0c2-7 4-14 7-21 2-6 5-12 6-18 2-6 2-11 2-17 0-8 7-15 16-15 9 0 16 7 16 15 0 8-1 16-3 25-2 7-5 14-8 21-1 4-2 7-3 10l28 0c6 0 11 3 14 8l121 204c3 6 2 14-3 19z m-165-199c1 3 1 6 2 9 2 6 4 12 6 18 3 7 6 15 8 22 2 8 3 16 3 24 0 8-1 16-3 24-1 4-3 8-4 11l13 0c6 0 9 7 5 12l-29 28c-3 3-7 3-9 0l-29-28c-4-5-1-12 5-12l11 0c0 0 0 0 0 0 2-7 5-13 6-19 2-6 2-11 2-16 0-5 0-10-2-16-1-6-4-12-6-19-3-7-5-14-7-21-2-6-3-12-3-17l-50 0c1 3 1 6 2 9 2 6 4 12 6 18 3 7 6 15 8 22 2 8 3 16 3 24 0 8-1 16-3 24-1 4-3 8-4 11l12 0c6 0 9 7 4 12l-28 28c-3 3-7 3-10 0l-28-28c-5-5-2-12 4-12l13 0c0 0 0 0 0 0 2-7 5-13 6-19 2-6 3-11 3-16 0-5-1-10-3-16-1-6-4-12-6-19-3-7-5-14-7-21-2-6-3-12-3-17l-50 0c1 3 1 6 2 9 2 6 4 12 6 18 3 7 6 15 8 22 2 8 3 16 3 24 0 8-1 16-3 24-1 4-3 8-4 11l10 0c6 0 9 7 5 12l-29 28c-2 3-6 3-9 0l-29-28c-4-5-1-12 5-12l14 0c0 0 0 0 0 0 2-7 5-13 6-19 2-6 3-11 3-16 0-5-1-10-3-16-1-6-4-12-6-19-3-7-5-14-7-21-2-6-3-12-3-17l-3 0-111 185c61 56 138 87 221 87 83 0 160-31 221-87l-111-185z"/>
<glyph glyph-name="mobiloitte-font-icons-14" unicode="&#50;" d="M474 470c-10 0-16-6-16-16l0-403c0-9-7-16-16-16l-391 0c-9 0-16 7-16 16l0 394c0 9 7 16 16 16l413 0c10 0 16 6 16 16 0 9-6 16-16 16l-413 0c-29 0-48-23-48-51l0-394c0-29 23-51 48-51l391 0c28 0 48 22 48 51l0 403c0 13-7 19-16 19z"/>
</font>
</defs>
</svg>
